<svg width="960" height="864" viewBox="0 0 960 864" fill="none" xmlns="http://www.w3.org/2000/svg">
<g clip-path="url(#clip0_55_2680)">
<rect width="960" height="864" fill="white"/>
<rect width="48" height="48" fill="#A5C9A5"/>
<rect x="48" width="48" height="48" fill="#EFC180"/>
<rect x="192" width="48" height="48" fill="#B5E5F8"/>
<rect x="240" width="48" height="48" fill="#746F70"/>
<rect x="288" width="48" height="48" fill="#F7B0CC"/>
<rect x="336" width="48" height="48" fill="#CDC9C1"/>
<rect x="384" width="48" height="48" fill="#C5AC90"/>
<rect x="432" width="48" height="48" fill="#242E47"/>
<rect x="96" width="48" height="48" fill="#C7A8CB"/>
<rect x="144" width="48" height="48" fill="#7A2E39"/>
<rect x="480" width="48" height="48" fill="#A5C9A5"/>
<rect x="528" width="48" height="48" fill="#EFC180"/>
<rect x="672" width="48" height="48" fill="#B5E5F8"/>
<rect x="720" width="48" height="48" fill="#746F70"/>
<rect x="768" width="48" height="48" fill="#F7B0CC"/>
<rect x="816" width="48" height="48" fill="#CDC9C1"/>
<rect x="864" width="48" height="48" fill="#C5AC90"/>
<rect x="912" width="48" height="48" fill="#242E47"/>
<rect x="576" width="48" height="48" fill="#C7A8CB"/>
<rect x="624" width="48" height="48" fill="#7A2E39"/>
<rect x="48" y="48" width="48" height="48" fill="#A5C9A5"/>
<rect x="96" y="48" width="48" height="48" fill="#EFC180"/>
<rect x="240" y="48" width="48" height="48" fill="#B5E5F8"/>
<rect x="288" y="48" width="48" height="48" fill="#746F70"/>
<rect x="336" y="48" width="48" height="48" fill="#F7B0CC"/>
<rect x="384" y="48" width="48" height="48" fill="#CDC9C1"/>
<rect x="432" y="48" width="48" height="48" fill="#C5AC90"/>
<rect x="480" y="48" width="48" height="48" fill="#242E47"/>
<rect x="144" y="48" width="48" height="48" fill="#C7A8CB"/>
<rect x="192" y="48" width="48" height="48" fill="#7A2E39"/>
<rect x="528" y="48" width="48" height="48" fill="#A5C9A5"/>
<rect x="576" y="48" width="48" height="48" fill="#EFC180"/>
<rect x="720" y="48" width="48" height="48" fill="#B5E5F8"/>
<rect x="768" y="48" width="48" height="48" fill="#746F70"/>
<rect x="816" y="48" width="48" height="48" fill="#F7B0CC"/>
<rect x="864" y="48" width="48" height="48" fill="#CDC9C1"/>
<rect x="912" y="48" width="48" height="48" fill="#C5AC90"/>
<rect y="96" width="48" height="48" fill="#C5AC90"/>
<rect y="48" width="48" height="48" fill="#242E47"/>
<rect x="624" y="48" width="48" height="48" fill="#C7A8CB"/>
<rect x="672" y="48" width="48" height="48" fill="#7A2E39"/>
<rect x="96" y="96" width="48" height="48" fill="#A5C9A5"/>
<rect x="144" y="96" width="48" height="48" fill="#EFC180"/>
<rect x="288" y="96" width="48" height="48" fill="#B5E5F8"/>
<rect x="336" y="96" width="48" height="48" fill="#746F70"/>
<rect x="384" y="96" width="48" height="48" fill="#F7B0CC"/>
<rect x="432" y="96" width="48" height="48" fill="#CDC9C1"/>
<rect x="480" y="96" width="48" height="48" fill="#C5AC90"/>
<rect x="528" y="96" width="48" height="48" fill="#242E47"/>
<rect x="192" y="96" width="48" height="48" fill="#C7A8CB"/>
<rect x="240" y="96" width="48" height="48" fill="#7A2E39"/>
<rect x="576" y="96" width="48" height="48" fill="#A5C9A5"/>
<rect x="624" y="96" width="48" height="48" fill="#EFC180"/>
<rect x="768" y="96" width="48" height="48" fill="#B5E5F8"/>
<rect x="816" y="96" width="48" height="48" fill="#746F70"/>
<rect x="864" y="96" width="48" height="48" fill="#F7B0CC"/>
<rect x="912" y="96" width="48" height="48" fill="#CDC9C1"/>
<rect x="48" y="96" width="48" height="48" fill="#242E47"/>
<rect x="672" y="96" width="48" height="48" fill="#C7A8CB"/>
<rect x="720" y="96" width="48" height="48" fill="#7A2E39"/>
<rect x="48" y="144" width="48" height="48" fill="#C5AC90"/>
<rect x="144" y="144" width="48" height="48" fill="#A5C9A5"/>
<rect x="192" y="144" width="48" height="48" fill="#EFC180"/>
<rect x="336" y="144" width="48" height="48" fill="#B5E5F8"/>
<rect x="384" y="144" width="48" height="48" fill="#746F70"/>
<rect x="432" y="144" width="48" height="48" fill="#F7B0CC"/>
<rect x="480" y="144" width="48" height="48" fill="#CDC9C1"/>
<rect x="528" y="144" width="48" height="48" fill="#C5AC90"/>
<rect x="576" y="144" width="48" height="48" fill="#242E47"/>
<rect x="240" y="144" width="48" height="48" fill="#C7A8CB"/>
<rect x="288" y="144" width="48" height="48" fill="#7A2E39"/>
<rect x="624" y="144" width="48" height="48" fill="#A5C9A5"/>
<rect x="672" y="144" width="48" height="48" fill="#EFC180"/>
<rect x="816" y="144" width="48" height="48" fill="#B5E5F8"/>
<rect x="864" y="144" width="48" height="48" fill="#746F70"/>
<rect x="912" y="144" width="48" height="48" fill="#F7B0CC"/>
<rect y="144" width="48" height="48" fill="#CDC9C1"/>
<rect x="96" y="144" width="48" height="48" fill="#242E47"/>
<rect x="720" y="144" width="48" height="48" fill="#C7A8CB"/>
<rect x="768" y="144" width="48" height="48" fill="#7A2E39"/>
<rect x="96" y="192" width="48" height="48" fill="#C5AC90"/>
<rect x="192" y="192" width="48" height="48" fill="#A5C9A5"/>
<rect x="240" y="192" width="48" height="48" fill="#EFC180"/>
<rect x="384" y="192" width="48" height="48" fill="#B5E5F8"/>
<rect x="432" y="192" width="48" height="48" fill="#746F70"/>
<rect x="480" y="192" width="48" height="48" fill="#F7B0CC"/>
<rect x="528" y="192" width="48" height="48" fill="#CDC9C1"/>
<rect x="576" y="192" width="48" height="48" fill="#C5AC90"/>
<rect x="624" y="192" width="48" height="48" fill="#242E47"/>
<rect x="288" y="192" width="48" height="48" fill="#C7A8CB"/>
<rect x="336" y="192" width="48" height="48" fill="#7A2E39"/>
<rect x="672" y="192" width="48" height="48" fill="#A5C9A5"/>
<rect x="720" y="192" width="48" height="48" fill="#EFC180"/>
<rect x="864" y="192" width="48" height="48" fill="#B5E5F8"/>
<rect x="912" y="192" width="48" height="48" fill="#746F70"/>
<rect y="192" width="48" height="48" fill="#F7B0CC"/>
<rect x="48" y="192" width="48" height="48" fill="#CDC9C1"/>
<rect x="144" y="192" width="48" height="48" fill="#242E47"/>
<rect x="768" y="192" width="48" height="48" fill="#C7A8CB"/>
<rect x="816" y="192" width="48" height="48" fill="#7A2E39"/>
<rect x="144" y="240" width="48" height="48" fill="#C5AC90"/>
<rect x="240" y="240" width="48" height="48" fill="#A5C9A5"/>
<rect x="288" y="240" width="48" height="48" fill="#EFC180"/>
<rect x="432" y="240" width="48" height="48" fill="#B5E5F8"/>
<rect x="480" y="240" width="48" height="48" fill="#746F70"/>
<rect x="528" y="240" width="48" height="48" fill="#F7B0CC"/>
<rect x="576" y="240" width="48" height="48" fill="#CDC9C1"/>
<rect x="624" y="240" width="48" height="48" fill="#C5AC90"/>
<rect x="672" y="240" width="48" height="48" fill="#242E47"/>
<rect x="336" y="240" width="48" height="48" fill="#C7A8CB"/>
<rect x="384" y="240" width="48" height="48" fill="#7A2E39"/>
<rect x="720" y="240" width="48" height="48" fill="#A5C9A5"/>
<rect x="768" y="240" width="48" height="48" fill="#EFC180"/>
<rect x="912" y="240" width="48" height="48" fill="#B5E5F8"/>
<rect y="240" width="48" height="48" fill="#746F70"/>
<rect x="48" y="240" width="48" height="48" fill="#F7B0CC"/>
<rect x="96" y="240" width="48" height="48" fill="#CDC9C1"/>
<rect x="192" y="240" width="48" height="48" fill="#242E47"/>
<rect x="816" y="240" width="48" height="48" fill="#C7A8CB"/>
<rect x="864" y="240" width="48" height="48" fill="#7A2E39"/>
<rect x="192" y="288" width="48" height="48" fill="#C5AC90"/>
<rect x="288" y="288" width="48" height="48" fill="#A5C9A5"/>
<rect x="336" y="288" width="48" height="48" fill="#EFC180"/>
<rect x="480" y="288" width="48" height="48" fill="#B5E5F8"/>
<rect x="528" y="288" width="48" height="48" fill="#746F70"/>
<rect x="576" y="288" width="48" height="48" fill="#F7B0CC"/>
<rect x="624" y="288" width="48" height="48" fill="#CDC9C1"/>
<rect x="672" y="288" width="48" height="48" fill="#C5AC90"/>
<rect x="720" y="288" width="48" height="48" fill="#242E47"/>
<rect x="384" y="288" width="48" height="48" fill="#C7A8CB"/>
<rect x="432" y="288" width="48" height="48" fill="#7A2E39"/>
<rect x="768" y="288" width="48" height="48" fill="#A5C9A5"/>
<rect x="816" y="288" width="48" height="48" fill="#EFC180"/>
<rect y="288" width="48" height="48" fill="#B5E5F8"/>
<rect x="48" y="288" width="48" height="48" fill="#746F70"/>
<rect x="96" y="288" width="48" height="48" fill="#F7B0CC"/>
<rect x="144" y="288" width="48" height="48" fill="#CDC9C1"/>
<rect x="240" y="288" width="48" height="48" fill="#242E47"/>
<rect x="864" y="288" width="48" height="48" fill="#C7A8CB"/>
<rect x="912" y="288" width="48" height="48" fill="#7A2E39"/>
<rect x="240" y="336" width="48" height="48" fill="#C5AC90"/>
<rect x="336" y="336" width="48" height="48" fill="#A5C9A5"/>
<rect x="384" y="336" width="48" height="48" fill="#EFC180"/>
<rect x="528" y="336" width="48" height="48" fill="#B5E5F8"/>
<rect x="576" y="336" width="48" height="48" fill="#746F70"/>
<rect x="624" y="336" width="48" height="48" fill="#F7B0CC"/>
<rect x="672" y="336" width="48" height="48" fill="#CDC9C1"/>
<rect x="720" y="336" width="48" height="48" fill="#C5AC90"/>
<rect x="768" y="336" width="48" height="48" fill="#242E47"/>
<rect x="432" y="336" width="48" height="48" fill="#C7A8CB"/>
<rect x="480" y="336" width="48" height="48" fill="#7A2E39"/>
<rect x="816" y="336" width="48" height="48" fill="#A5C9A5"/>
<rect x="864" y="336" width="48" height="48" fill="#EFC180"/>
<rect x="48" y="336" width="48" height="48" fill="#B5E5F8"/>
<rect x="96" y="336" width="48" height="48" fill="#746F70"/>
<rect x="144" y="336" width="48" height="48" fill="#F7B0CC"/>
<rect x="192" y="336" width="48" height="48" fill="#CDC9C1"/>
<rect x="288" y="336" width="48" height="48" fill="#242E47"/>
<rect x="912" y="336" width="48" height="48" fill="#C7A8CB"/>
<rect y="336" width="48" height="48" fill="#7A2E39"/>
<rect x="288" y="384" width="48" height="48" fill="#C5AC90"/>
<rect x="384" y="384" width="48" height="48" fill="#A5C9A5"/>
<rect x="432" y="384" width="48" height="48" fill="#EFC180"/>
<rect x="576" y="384" width="48" height="48" fill="#B5E5F8"/>
<rect x="624" y="384" width="48" height="48" fill="#746F70"/>
<rect x="672" y="384" width="48" height="48" fill="#F7B0CC"/>
<rect x="720" y="384" width="48" height="48" fill="#CDC9C1"/>
<rect x="768" y="384" width="48" height="48" fill="#C5AC90"/>
<rect x="816" y="384" width="48" height="48" fill="#242E47"/>
<rect x="480" y="384" width="48" height="48" fill="#C7A8CB"/>
<rect x="528" y="384" width="48" height="48" fill="#7A2E39"/>
<rect x="864" y="384" width="48" height="48" fill="#A5C9A5"/>
<rect x="912" y="384" width="48" height="48" fill="#EFC180"/>
<rect x="96" y="384" width="48" height="48" fill="#B5E5F8"/>
<rect y="768" width="48" height="48" fill="#B5E5F8"/>
<rect x="48" y="816" width="48" height="48" fill="#B5E5F8"/>
<rect x="144" y="384" width="48" height="48" fill="#746F70"/>
<rect x="192" y="384" width="48" height="48" fill="#F7B0CC"/>
<rect x="240" y="384" width="48" height="48" fill="#CDC9C1"/>
<rect x="336" y="384" width="48" height="48" fill="#242E47"/>
<rect y="384" width="48" height="48" fill="#C7A8CB"/>
<rect x="48" y="384" width="48" height="48" fill="#7A2E39"/>
<rect x="336" y="432" width="48" height="48" fill="#C5AC90"/>
<rect x="432" y="432" width="48" height="48" fill="#A5C9A5"/>
<rect x="480" y="432" width="48" height="48" fill="#EFC180"/>
<rect x="624" y="432" width="48" height="48" fill="#B5E5F8"/>
<rect x="672" y="432" width="48" height="48" fill="#746F70"/>
<rect x="720" y="432" width="48" height="48" fill="#F7B0CC"/>
<rect x="768" y="432" width="48" height="48" fill="#CDC9C1"/>
<rect x="816" y="432" width="48" height="48" fill="#C5AC90"/>
<rect x="864" y="432" width="48" height="48" fill="#242E47"/>
<rect x="528" y="432" width="48" height="48" fill="#C7A8CB"/>
<rect x="576" y="432" width="48" height="48" fill="#7A2E39"/>
<rect x="912" y="432" width="48" height="48" fill="#A5C9A5"/>
<rect y="432" width="48" height="48" fill="#EFC180"/>
<rect x="144" y="432" width="48" height="48" fill="#B5E5F8"/>
<rect x="192" y="432" width="48" height="48" fill="#746F70"/>
<rect x="240" y="432" width="48" height="48" fill="#F7B0CC"/>
<rect x="288" y="432" width="48" height="48" fill="#CDC9C1"/>
<rect x="384" y="432" width="48" height="48" fill="#242E47"/>
<rect x="48" y="432" width="48" height="48" fill="#C7A8CB"/>
<rect x="96" y="432" width="48" height="48" fill="#7A2E39"/>
<rect x="384" y="480" width="48" height="48" fill="#C5AC90"/>
<rect x="480" y="480" width="48" height="48" fill="#A5C9A5"/>
<rect x="528" y="480" width="48" height="48" fill="#EFC180"/>
<rect x="672" y="480" width="48" height="48" fill="#B5E5F8"/>
<rect x="720" y="480" width="48" height="48" fill="#746F70"/>
<rect x="768" y="480" width="48" height="48" fill="#F7B0CC"/>
<rect x="816" y="480" width="48" height="48" fill="#CDC9C1"/>
<rect x="864" y="480" width="48" height="48" fill="#C5AC90"/>
<rect x="912" y="480" width="48" height="48" fill="#242E47"/>
<rect x="576" y="480" width="48" height="48" fill="#C7A8CB"/>
<rect x="624" y="480" width="48" height="48" fill="#7A2E39"/>
<rect y="480" width="48" height="48" fill="#A5C9A5"/>
<rect x="48" y="480" width="48" height="48" fill="#EFC180"/>
<rect x="192" y="480" width="48" height="48" fill="#B5E5F8"/>
<rect x="240" y="480" width="48" height="48" fill="#746F70"/>
<rect x="288" y="480" width="48" height="48" fill="#F7B0CC"/>
<rect x="336" y="480" width="48" height="48" fill="#CDC9C1"/>
<rect x="432" y="480" width="48" height="48" fill="#242E47"/>
<rect x="96" y="480" width="48" height="48" fill="#C7A8CB"/>
<rect x="144" y="480" width="48" height="48" fill="#7A2E39"/>
<rect x="432" y="528" width="48" height="48" fill="#C5AC90"/>
<rect x="528" y="528" width="48" height="48" fill="#A5C9A5"/>
<rect x="576" y="528" width="48" height="48" fill="#EFC180"/>
<rect x="720" y="528" width="48" height="48" fill="#B5E5F8"/>
<rect x="768" y="528" width="48" height="48" fill="#746F70"/>
<rect x="816" y="528" width="48" height="48" fill="#F7B0CC"/>
<rect x="864" y="528" width="48" height="48" fill="#CDC9C1"/>
<rect x="912" y="528" width="48" height="48" fill="#C5AC90"/>
<rect y="576" width="48" height="48" fill="#C5AC90"/>
<rect y="528" width="48" height="48" fill="#242E47"/>
<rect x="624" y="528" width="48" height="48" fill="#C7A8CB"/>
<rect x="672" y="528" width="48" height="48" fill="#7A2E39"/>
<rect x="48" y="528" width="48" height="48" fill="#A5C9A5"/>
<rect x="96" y="528" width="48" height="48" fill="#EFC180"/>
<rect x="240" y="528" width="48" height="48" fill="#B5E5F8"/>
<rect x="288" y="528" width="48" height="48" fill="#746F70"/>
<rect x="336" y="528" width="48" height="48" fill="#F7B0CC"/>
<rect x="384" y="528" width="48" height="48" fill="#CDC9C1"/>
<rect x="480" y="528" width="48" height="48" fill="#242E47"/>
<rect x="144" y="528" width="48" height="48" fill="#C7A8CB"/>
<rect x="192" y="528" width="48" height="48" fill="#7A2E39"/>
<rect x="480" y="576" width="48" height="48" fill="#C5AC90"/>
<rect x="576" y="576" width="48" height="48" fill="#A5C9A5"/>
<rect x="624" y="576" width="48" height="48" fill="#EFC180"/>
<rect x="768" y="576" width="48" height="48" fill="#B5E5F8"/>
<rect x="816" y="576" width="48" height="48" fill="#746F70"/>
<rect x="864" y="576" width="48" height="48" fill="#F7B0CC"/>
<rect x="912" y="576" width="48" height="48" fill="#CDC9C1"/>
<rect y="624" width="48" height="48" fill="#CDC9C1"/>
<rect x="48" y="624" width="48" height="48" fill="#C5AC90"/>
<rect x="96" y="624" width="48" height="48" fill="#242E47"/>
<rect y="672" width="48" height="48" fill="#F7B0CC"/>
<rect x="48" y="672" width="48" height="48" fill="#CDC9C1"/>
<rect x="96" y="672" width="48" height="48" fill="#C5AC90"/>
<rect y="720" width="48" height="48" fill="#746F70"/>
<rect x="48" y="768" width="48" height="48" fill="#746F70"/>
<rect x="96" y="816" width="48" height="48" fill="#746F70"/>
<rect x="48" y="720" width="48" height="48" fill="#F7B0CC"/>
<rect x="96" y="768" width="48" height="48" fill="#F7B0CC"/>
<rect x="96" y="720" width="48" height="48" fill="#CDC9C1"/>
<rect x="48" y="576" width="48" height="48" fill="#242E47"/>
<rect x="672" y="576" width="48" height="48" fill="#C7A8CB"/>
<rect x="720" y="576" width="48" height="48" fill="#7A2E39"/>
<rect x="96" y="576" width="48" height="48" fill="#A5C9A5"/>
<rect x="144" y="576" width="48" height="48" fill="#EFC180"/>
<rect x="288" y="576" width="48" height="48" fill="#B5E5F8"/>
<rect x="336" y="576" width="48" height="48" fill="#746F70"/>
<rect x="384" y="576" width="48" height="48" fill="#F7B0CC"/>
<rect x="432" y="576" width="48" height="48" fill="#CDC9C1"/>
<rect x="528" y="576" width="48" height="48" fill="#242E47"/>
<rect x="192" y="576" width="48" height="48" fill="#C7A8CB"/>
<rect x="240" y="576" width="48" height="48" fill="#7A2E39"/>
<rect x="528" y="624" width="48" height="48" fill="#C5AC90"/>
<rect x="624" y="624" width="48" height="48" fill="#A5C9A5"/>
<rect x="672" y="624" width="48" height="48" fill="#EFC180"/>
<rect x="816" y="624" width="48" height="48" fill="#B5E5F8"/>
<rect x="864" y="624" width="48" height="48" fill="#746F70"/>
<rect x="912" y="624" width="48" height="48" fill="#F7B0CC"/>
<rect x="720" y="624" width="48" height="48" fill="#C7A8CB"/>
<rect x="768" y="624" width="48" height="48" fill="#7A2E39"/>
<rect x="144" y="624" width="48" height="48" fill="#A5C9A5"/>
<rect x="192" y="624" width="48" height="48" fill="#EFC180"/>
<rect x="336" y="624" width="48" height="48" fill="#B5E5F8"/>
<rect x="384" y="624" width="48" height="48" fill="#746F70"/>
<rect x="432" y="624" width="48" height="48" fill="#F7B0CC"/>
<rect x="480" y="624" width="48" height="48" fill="#CDC9C1"/>
<rect x="576" y="624" width="48" height="48" fill="#242E47"/>
<rect x="240" y="624" width="48" height="48" fill="#C7A8CB"/>
<rect x="288" y="624" width="48" height="48" fill="#7A2E39"/>
<rect x="576" y="672" width="48" height="48" fill="#C5AC90"/>
<rect x="672" y="672" width="48" height="48" fill="#A5C9A5"/>
<rect x="720" y="672" width="48" height="48" fill="#EFC180"/>
<rect x="864" y="672" width="48" height="48" fill="#B5E5F8"/>
<rect x="912" y="672" width="48" height="48" fill="#746F70"/>
<rect x="144" y="720" width="48" height="48" fill="#C5AC90"/>
<rect x="144" y="672" width="48" height="48" fill="#242E47"/>
<rect x="768" y="672" width="48" height="48" fill="#C7A8CB"/>
<rect x="816" y="672" width="48" height="48" fill="#7A2E39"/>
<rect y="816" width="48" height="48" fill="#7A2E39"/>
<rect x="192" y="672" width="48" height="48" fill="#A5C9A5"/>
<rect x="240" y="672" width="48" height="48" fill="#EFC180"/>
<rect x="384" y="672" width="48" height="48" fill="#B5E5F8"/>
<rect x="432" y="672" width="48" height="48" fill="#746F70"/>
<rect x="480" y="672" width="48" height="48" fill="#F7B0CC"/>
<rect x="528" y="672" width="48" height="48" fill="#CDC9C1"/>
<rect x="624" y="672" width="48" height="48" fill="#242E47"/>
<rect x="288" y="672" width="48" height="48" fill="#C7A8CB"/>
<rect x="336" y="672" width="48" height="48" fill="#7A2E39"/>
<rect x="624" y="720" width="48" height="48" fill="#C5AC90"/>
<rect x="720" y="720" width="48" height="48" fill="#A5C9A5"/>
<rect x="768" y="720" width="48" height="48" fill="#EFC180"/>
<rect x="912" y="720" width="48" height="48" fill="#B5E5F8"/>
<rect x="192" y="720" width="48" height="48" fill="#242E47"/>
<rect x="816" y="720" width="48" height="48" fill="#C7A8CB"/>
<rect x="864" y="720" width="48" height="48" fill="#7A2E39"/>
<rect x="240" y="720" width="48" height="48" fill="#A5C9A5"/>
<rect x="288" y="720" width="48" height="48" fill="#EFC180"/>
<rect x="432" y="720" width="48" height="48" fill="#B5E5F8"/>
<rect x="480" y="720" width="48" height="48" fill="#746F70"/>
<rect x="528" y="720" width="48" height="48" fill="#F7B0CC"/>
<rect x="576" y="720" width="48" height="48" fill="#CDC9C1"/>
<rect x="672" y="720" width="48" height="48" fill="#242E47"/>
<rect x="336" y="720" width="48" height="48" fill="#C7A8CB"/>
<rect x="384" y="720" width="48" height="48" fill="#7A2E39"/>
<rect x="144" y="768" width="48" height="48" fill="#CDC9C1"/>
<rect x="192" y="768" width="48" height="48" fill="#C5AC90"/>
<rect x="144" y="816" width="48" height="48" fill="#F7B0CC"/>
<rect x="192" y="816" width="48" height="48" fill="#CDC9C1"/>
<rect x="672" y="768" width="48" height="48" fill="#C5AC90"/>
<rect x="768" y="768" width="48" height="48" fill="#A5C9A5"/>
<rect x="816" y="768" width="48" height="48" fill="#EFC180"/>
<rect x="240" y="816" width="48" height="48" fill="#C5AC90"/>
<rect x="240" y="768" width="48" height="48" fill="#242E47"/>
<rect x="864" y="768" width="48" height="48" fill="#C7A8CB"/>
<rect x="912" y="768" width="48" height="48" fill="#7A2E39"/>
<rect x="288" y="768" width="48" height="48" fill="#A5C9A5"/>
<rect x="336" y="768" width="48" height="48" fill="#EFC180"/>
<rect x="480" y="768" width="48" height="48" fill="#B5E5F8"/>
<rect x="528" y="768" width="48" height="48" fill="#746F70"/>
<rect x="576" y="768" width="48" height="48" fill="#F7B0CC"/>
<rect x="624" y="768" width="48" height="48" fill="#CDC9C1"/>
<rect x="720" y="768" width="48" height="48" fill="#242E47"/>
<rect x="384" y="768" width="48" height="48" fill="#C7A8CB"/>
<rect x="432" y="768" width="48" height="48" fill="#7A2E39"/>
<rect x="720" y="816" width="48" height="48" fill="#C5AC90"/>
<rect x="816" y="816" width="48" height="48" fill="#A5C9A5"/>
<rect x="864" y="816" width="48" height="48" fill="#EFC180"/>
<rect x="288" y="816" width="48" height="48" fill="#242E47"/>
<rect x="912" y="816" width="48" height="48" fill="#C7A8CB"/>
<rect x="336" y="816" width="48" height="48" fill="#A5C9A5"/>
<rect x="384" y="816" width="48" height="48" fill="#EFC180"/>
<rect x="528" y="816" width="48" height="48" fill="#B5E5F8"/>
<rect x="576" y="816" width="48" height="48" fill="#746F70"/>
<rect x="624" y="816" width="48" height="48" fill="#F7B0CC"/>
<rect x="672" y="816" width="48" height="48" fill="#CDC9C1"/>
<rect x="768" y="816" width="48" height="48" fill="#242E47"/>
<rect x="432" y="816" width="48" height="48" fill="#C7A8CB"/>
<rect x="480" y="816" width="48" height="48" fill="#7A2E39"/>
</g>
<defs>
<clipPath id="clip0_55_2680">
<rect width="960" height="864" fill="white"/>
</clipPath>
</defs>
</svg>
